<?xml version="1.0" encoding="UTF-8" standalone="no"?>
<!-- Created with Inkscape (http://www.inkscape.org/) -->

<svg
   version="1.1"
   id="svg6948"
   width="512"
   height="512"
   viewBox="0 0 512 512"
   sodipodi:docname="scheme-logo-2.svg"
   inkscape:version="1.2.1 (2ed6d7ae0b, 2022-08-22, custom)"
   inkscape:export-filename="../c90f1bda/sheme-logo-2.png"
   inkscape:export-xdpi="96"
   inkscape:export-ydpi="96"
   xmlns:inkscape="http://www.inkscape.org/namespaces/inkscape"
   xmlns:sodipodi="http://sodipodi.sourceforge.net/DTD/sodipodi-0.dtd"
   xmlns="http://www.w3.org/2000/svg"
   xmlns:svg="http://www.w3.org/2000/svg">
  <defs
     id="defs6952" />
  <sodipodi:namedview
     id="namedview6950"
     pagecolor="#ffffff"
     bordercolor="#000000"
     borderopacity="0.25"
     inkscape:showpageshadow="2"
     inkscape:pageopacity="0.0"
     inkscape:pagecheckerboard="0"
     inkscape:deskcolor="#d1d1d1"
     showgrid="false"
     inkscape:zoom="0.9296875"
     inkscape:cx="224.26891"
     inkscape:cy="258.68908"
     inkscape:window-width="1366"
     inkscape:window-height="704"
     inkscape:window-x="0"
     inkscape:window-y="0"
     inkscape:window-maximized="1"
     inkscape:current-layer="g6954" />
  <g
     inkscape:groupmode="layer"
     inkscape:label="Image"
     id="g6954">
    <path
       style="fill:#c0392b;fill-opacity:1;stroke-width:0.941565"
       d="m 422.12719,450.09091 c -16.57155,-6.87797 -36.69752,-15.40248 -44.72436,-18.94333 L 362.80856,424.70966 207.77626,269.72972 C 121.85744,183.83992 52.013969,113.29048 51.106498,111.47634 49.070513,107.40617 48.985989,99.621153 50.937346,95.896437 51.744907,94.354975 61.446534,84.12879 72.49651,73.17158 89.646775,56.165294 93.11231,53.150905 96.173848,52.576557 c 5.287972,-0.992029 10.685202,0.02506 14.599392,2.751203 1.90414,1.326183 72.5786,71.59136 157.05435,156.14483 l 153.59229,153.73359 6.65295,13.24272 c 14.63832,29.13757 34.35452,72.47739 34.40074,75.61912 0.0357,2.42504 -0.67162,3.82128 -2.98109,5.88478 -1.66532,1.48798 -3.97451,2.69149 -5.13153,2.67447 -1.15702,-0.017 -15.66221,-5.65837 -32.23376,-12.53636 z m 13.84913,-14.50271 c -0.44627,-0.90626 -6.06559,-12.77482 -12.48739,-26.3746 l -11.67599,-24.72684 -14.86491,14.84041 c -13.8764,13.85353 -14.72666,14.90303 -12.7859,15.78198 6.43671,2.91513 51.26626,21.9491 51.88628,22.03015 0.40661,0.0531 0.37417,-0.64485 -0.0721,-1.5511 z M 276.42279,245.39572 151.43651,120.40944 l -16.95711,16.93747 -16.95711,16.93748 124.99477,124.99743 124.99478,124.99743 16.94862,-16.94862 16.94862,-16.94862 z M 122.48334,124.86254 139.18586,108.14066 119.88483,88.856865 100.5838,69.573067 83.634325,86.502921 66.684848,103.43278 l 19.05879,19.07581 c 10.482325,10.4917 19.278932,19.07581 19.547992,19.07581 0.26906,0 8.00534,-7.52484 17.19171,-16.72186 z m 2.10918,329.41842 C 123.03894,453.30238 106.65078,437.30912 88.174393,418.74039 51.845504,382.22993 52.38729,382.93174 53.933746,374.38645 c 0.56411,-3.11715 7.277547,-10.17811 57.294494,-60.26035 l 56.6555,-56.72948 5.18238,5.18238 5.18238,5.18238 -54.84066,54.84667 -54.840662,54.84667 31.788292,31.77798 31.7883,31.77797 12.22018,-12.24737 12.22018,-12.24737 -20.46824,-20.48411 c -11.25753,-11.26626 -20.46824,-21.13732 -20.46824,-21.9357 0,-1.86261 1.84872,-3.71133 3.71133,-3.71133 0.79838,0 10.66888,9.21015 21.93446,20.46701 l 20.48287,20.46699 10.36191,-10.32977 10.3619,-10.32977 -10.44132,-10.47103 c -8.35235,-8.37612 -10.37753,-10.92228 -10.12249,-12.72654 0.21843,-1.54524 1.02909,-2.3559 2.57433,-2.57433 1.80427,-0.25504 4.35062,1.77034 12.72781,10.12377 l 10.4723,10.44259 8.91122,-8.94843 8.91123,-8.94843 -10.57564,-10.60572 c -5.81659,-5.83315 -10.57563,-11.09846 -10.57563,-11.70069 0,-1.37915 2.62483,-4.05417 3.97809,-4.05417 0.56038,0 5.83661,4.75328 11.72494,10.56284 l 10.70604,10.56285 7.73369,-7.73368 7.73369,-7.73369 -10.18661,-10.21828 c -8.8774,-8.90502 -10.14652,-10.5695 -9.87483,-12.951 0.23129,-2.02723 0.87651,-2.81271 2.49933,-3.04263 1.71253,-0.24262 4.47925,1.95114 12.7414,10.10276 l 10.55385,10.41269 4.91343,-4.91343 4.91344,-4.91343 5.40689,5.4069 5.4069,5.4069 -55.54573,55.64208 c -31.80018,31.85533 -56.84099,56.20595 -58.57559,56.96109 -4.27411,1.86068 -10.55741,1.64973 -13.91834,-0.46728 z m 200.10268,-195.45138 -5.09425,-5.15832 2.04403,-2.17577 2.04403,-2.17576 -11.30792,-11.26183 c -9.16906,-9.13168 -11.25746,-11.70707 -11.0411,-13.61574 0.19526,-1.72264 0.8981,-2.42548 2.62073,-2.62074 1.9089,-0.21638 4.48745,1.87543 13.63903,11.06444 l 11.28511,11.33127 12.48249,-12.4568 12.48249,-12.4568 -20.79434,-20.86948 c -18.4506,-18.51726 -20.68138,-21.08055 -19.79211,-22.74218 2.43147,-4.54323 3.49295,-3.79434 25.0086,17.64385 l 20.81582,20.74086 8.68524,-8.7215 8.68524,-8.7215 -11.2973,-11.26787 c -12.00075,-11.9695 -13.61863,-14.91585 -8.84793,-16.11322 2.18104,-0.54741 3.70426,0.63712 13.9042,10.81256 l 11.45482,11.42732 8.9124,-8.94961 8.91241,-8.94962 -11.51782,-11.54553 c -6.33479,-6.35004 -11.51781,-12.03878 -11.51781,-12.64164 0,-1.38335 2.62559,-4.05531 3.98494,-4.05531 0.56416,0 6.26321,5.17787 12.66455,11.50637 l 11.63883,11.50637 7.7363,-7.73631 7.73632,-7.73631 -11.05246,-11.08134 c -8.57738,-8.59978 -11.05248,-11.6438 -11.05248,-13.59304 0,-2.86967 2.68385,-4.24374 5.37845,-2.75364 0.92582,0.51197 6.33682,5.61989 12.02446,11.35093 l 10.34115,10.42008 9.67293,-9.64002 9.67294,-9.64001 -31.3076,-31.318072 C 396.6804,79.41073 382.16709,65.317599 381.64778,65.317599 c -0.51931,0 -29.0141,28.067519 -63.32176,62.372271 l -62.37755,62.37226 -5.18195,-5.18195 -5.18196,-5.18195 64.2614,-64.17627 c 70.46846,-70.37511 67.26141,-67.623477 76.06816,-65.266067 3.74123,1.001463 7.82613,4.735796 37.40885,34.198409 21.61814,21.530368 33.8597,34.418348 35.07331,36.925328 2.07379,4.28387 2.36381,8.38702 0.87474,12.37556 -0.85234,2.28302 -127.56069,130.23271 -128.96922,130.23271 -0.28179,0 -2.80477,-2.32124 -5.6066,-5.15832 z"
       id="path7801" />
    <rect
       style="fill:none;stroke:#2f4858;stroke-width:15.11811024;stroke-dasharray:none;stroke-opacity:1"
       id="rect7803"
       width="475.13446"
       height="475.13446"
       x="18.43277"
       y="18.43277"
       ry="0" />
  </g>
</svg>
